# xmcd
#
# Track frame offsets:
#	150
#	20150
#	41112
#	59362
#	80055
#	97240
#	117110
#	134265
#	159707
#	178802
#	198295
#	220172
#
# Disc length: 3164 seconds
#
# Revision: 1
# Processed by: cddbd v1.5.1PL2 Copyright (c) Steve Scherf et al.
# Submitted via: audiograbber 1.83.01
#
DISCID=b30c5a0c
DTITLE=Álex Ubago - Fantasía o realidad
DYEAR=2003
DGENRE=Ballad
TTITLE0=Aunque no te pueda ver
TTITLE1=Fantasía o realidad
TTITLE2=Dame tu aire
TTITLE3=Prefiero
TTITLE4=Cuanto antes
TTITLE5=Otro día más
TTITLE6=Allí estaré
TTITLE7=Despertar
TTITLE8=Lo más grande
TTITLE9=Por tantas cosas
TTITLE10=Salida
TTITLE11=No soy yo
EXTD=
EXTT0=
EXTT1=
EXTT2=
EXTT3=
EXTT4=
EXTT5=
EXTT6=
EXTT7=
EXTT8=
EXTT9=
EXTT10=
EXTT11=
PLAYORDER=
